# xmcd
#
# Track frame offsets:
# 150
# 15967
# 38200
# 51957
# 68040
# 75500
# 89157
# 107450
# 120590
# 142537
# 166162
# 173900
# 211015
# 228637
# 251242
# 268475
# 283415
# 305005
#
# Disc length: 4593 seconds
#
#
# Revision: 0
# Processed by: cddbd v1.4PL0 Copyright (c) Steve Scherf et al.
# Submitted via: FreeRIP 2.35 
#
DISCID=fa11ef12
DTITLE=Nina Simone - Sugar In My Bowl - Disc 2
DYEAR=1998
DGENRE=Blues
TTITLE0=I Think Its Going To Rain Today
TTITLE1=I Get Along With Out You Very Well (Except Sometimes)
TTITLE2=Nobody's Fault But Mine
TTITLE3=Another Spring
TTITLE4=Compassion
TTITLE5=Seems I'm Never Tired Lovin' You
TTITLE6=I Shall Be Released
TTITLE7=To Be Young, Gifted And Black
TTITLE8=Just Like Tom Thumb's Blues
TTITLE9=Suzanne
TTITLE10=My Father-Dialog
TTITLE11=Jelly Roll
TTITLE12=Tell It Like It Is
TTITLE13=Mr Bojangles
TTITLE14=Here Comes The Sun
TTITLE15=Ooh Child
TTITLE16=Poppies
TTITLE17=22nd Century
EXTD=The Very Best Of Nina Simone \nSugar In My Bowl 1967-1972
EXTT0=
EXTT1=
EXTT2=
EXTT3=
EXTT4=
EXTT5=
EXTT6=
EXTT7=
EXTT8=
EXTT9=
EXTT10=
EXTT11=
EXTT12=
EXTT13=
EXTT14=
EXTT15=
EXTT16=
EXTT17=
PLAYORDER=
